HIERARCHY
ROOT Hips
{
	OFFSET 0.000000 0.000000 0.000000 
	CHANNELS 6 Xposition Yposition Zposition Zrotation Xrotation Yrotation
	JOINT Spine
	{
		OFFSET -0.000000 8.280624 0.000000 
		CHANNELS 3 Zrotation Xrotation Yrotation
		JOINT Spine1
		{
			OFFSET -0.000000 24.860672 0.000000 
			CHANNELS 3 Zrotation Xrotation Yrotation
			JOINT Neck
			{
				OFFSET -0.000000 24.758574 2.250779 
				CHANNELS 3 Zrotation Xrotation Yrotation
				JOINT Head
				{
					OFFSET -0.000000 14.137651 -2.019665 
					CHANNELS 3 Zrotation Xrotation Yrotation
					End Site
					{
						OFFSET -0.000000 25.245806 0.000000 
					}
				}
			}
			JOINT LeftShoulder
			{
				OFFSET 4.021533 22.370487 -0.301823 
				CHANNELS 3 Zrotation Xrotation Yrotation
				JOINT LeftArm
				{
					OFFSET 12.928750 0.000000 0.000000 
					CHANNELS 3 Zrotation Xrotation Yrotation
					JOINT LeftForeArm
					{
						OFFSET 29.110218 0.000000 0.000000 
						CHANNELS 3 Zrotation Xrotation Yrotation
						JOINT LeftHand
						{
							OFFSET 26.112843 0.000000 0.000000 
							CHANNELS 3 Zrotation Xrotation Yrotation
							End Site
							{
								OFFSET 15.147485 0.000000 0.000000 
							}
						}
					}
				}
			}
			JOINT RightShoulder
			{
				OFFSET -4.040554 22.370487 -0.301823 
				CHANNELS 3 Zrotation Xrotation Yrotation
				JOINT RightArm
				{
					OFFSET -12.928750 0.000000 0.000000 
					CHANNELS 3 Zrotation Xrotation Yrotation
					JOINT RightForeArm
					{
						OFFSET -29.110218 0.000000 0.000000 
						CHANNELS 3 Zrotation Xrotation Yrotation
						JOINT RightHand
						{
							OFFSET -26.112843 0.000000 0.000000 
							CHANNELS 3 Zrotation Xrotation Yrotation
							End Site
							{
								OFFSET -15.147485 0.000000 0.000000 
							}
						}
					}
				}
			}
		}
	}
	JOINT LeftUpLeg
	{
		OFFSET 10.098323 0.000000 0.000000 
		CHANNELS 3 Zrotation Xrotation Yrotation
		JOINT LeftLeg
		{
			OFFSET -0.000000 -44.180832 0.000000 
			CHANNELS 3 Zrotation Xrotation Yrotation
			JOINT LeftFoot
			{
				OFFSET -0.000000 -40.401024 0.000000 
				CHANNELS 3 Zrotation Xrotation Yrotation
				JOINT LeftToeBase
				{
					OFFSET -0.000000 -6.563910 15.147485 
					CHANNELS 3 Zrotation Xrotation Yrotation
					End Site
					{
						OFFSET -0.000000 0.000000 4.039329 
					}
				}
			}
		}
	}
	JOINT RightUpLeg
	{
		OFFSET -10.098323 0.000000 0.000000 
		CHANNELS 3 Zrotation Xrotation Yrotation
		JOINT RightLeg
		{
			OFFSET -0.000000 -44.180832 0.000000 
			CHANNELS 3 Zrotation Xrotation Yrotation
			JOINT RightFoot
			{
				OFFSET -0.000000 -40.401024 0.000000 
				CHANNELS 3 Zrotation Xrotation Yrotation
				JOINT RightToeBase
				{
					OFFSET -0.000000 -6.563910 15.147485 
					CHANNELS 3 Zrotation Xrotation Yrotation
					End Site
					{
						OFFSET -0.000000 0.000000 4.039329 
					}
				}
			}
		}
	}
}
MOTION
Frames: 18
Frame Time: 0.008333
-40.075523 93.561363 8.563022 4.107040 -2.366211 103.935471 -1.187187 11.977468 -8.788424 3.420175 2.795166 -8.996363 -1.965629 17.473553 32.231728 -17.671629 -10.220582 29.767065 3.085092 -1.533491 -25.413324 -18.905725 38.697456 -71.217712 -14.936758 -9.877780 -47.394329 14.864635 -17.701181 -11.169512 -1.786195 5.342353 10.836233 60.890137 6.314567 16.607201 30.774479 -18.547489 82.822212 -7.158027 -43.809040 24.663275 21.242893 -7.099740 4.508064 0.604141 10.834867 7.201223 -3.191230 11.421862 7.303948 0.000000 0.000000 0.000000 -8.174896 -1.833210 -13.131058 -0.095197 24.286526 14.433841 11.858255 -5.293931 -20.323622 0.000000 0.000000 0.000000 
-40.189407 93.551109 9.122716 4.020641 -2.502104 103.456459 -1.171220 12.166189 -8.853491 3.350209 2.869466 -9.062180 -2.003879 17.538769 32.611099 -17.830864 -10.496611 30.091644 3.091335 -1.553283 -25.533710 -18.569067 38.172184 -71.684784 -14.585645 -9.768764 -47.658707 15.419240 -17.633574 -11.908921 -1.780642 5.261579 10.605245 60.520592 5.859856 16.571999 30.103544 -17.860943 83.929520 -7.054080 -43.187984 24.621746 21.429924 -7.145356 3.463264 0.626506 10.971973 6.272368 -3.525054 10.180919 8.094278 0.000000 0.000000 0.000000 -7.791315 -2.414124 -12.886526 -0.145865 24.687672 14.594193 11.570712 -5.367685 -20.212963 0.000000 0.000000 0.000000 
-40.318615 93.527946 9.667641 3.861917 -2.569429 103.032814 -1.212611 12.273432 -8.933028 3.244236 2.978931 -9.147712 -1.924123 17.395912 32.930138 -17.894003 -10.397090 30.435713 3.102019 -1.578202 -25.638855 -18.259315 37.586193 -72.202194 -14.114036 -9.484197 -47.816082 16.116947 -17.302015 -12.298172 -1.758098 5.133707 10.425713 60.120670 5.285292 16.443405 29.279514 -17.149796 84.865547 -6.442635 -42.275269 24.720333 21.545223 -7.285424 2.043180 0.511179 11.169134 6.409289 -3.438299 9.013025 8.230544 0.000000 0.000000 0.000000 -7.474523 -3.020581 -12.597162 -0.198075 25.075682 14.812019 11.233786 -5.553120 -20.229712 0.000000 0.000000 0.000000 
-40.458447 93.502625 10.203860 3.685888 -2.619519 102.629417 -1.266518 12.390515 -8.988068 3.133421 3.045782 -9.208801 -2.133926 17.566845 33.293293 -17.886372 -10.932834 30.734339 3.092099 -1.609893 -25.763758 -17.999916 37.002495 -72.705307 -13.857808 -9.342020 -47.967110 16.999954 -17.246469 -12.842465 -1.729719 4.966922 10.224992 59.739166 4.647956 16.271721 28.944302 -16.257446 86.089256 -7.134864 -41.885834 24.421730 21.583675 -7.476454 1.078979 0.578704 11.379265 6.555231 -3.837335 7.978977 8.280950 0.000000 0.000000 0.000000 -7.147592 -3.623681 -12.196198 -0.247947 25.437359 15.075679 10.883025 -5.784101 -20.415174 0.000000 0.000000 0.000000 
-40.602711 93.471436 10.714590 3.500677 -2.628137 102.303421 -1.320136 12.502739 -9.050951 2.982270 3.086127 -9.275841 -2.149738 17.687763 33.554367 -18.017075 -11.211405 30.937164 3.078070 -1.720702 -25.976936 -17.989717 36.469067 -73.012383 -13.420233 -9.012529 -47.993587 17.689842 -16.878197 -13.244155 -1.689613 4.840255 10.035168 59.378422 4.055161 16.119844 28.531031 -15.528082 87.303963 -7.611382 -41.521152 24.174471 21.592461 -7.782833 -0.213742 0.495904 11.763912 7.139738 -4.345561 7.099954 8.346533 0.000000 0.000000 0.000000 -6.829885 -4.196382 -11.699980 -0.315705 25.764915 15.206158 10.562446 -6.044037 -20.619425 0.000000 0.000000 0.000000 
-40.747444 93.433533 11.203635 3.314330 -2.615915 102.024185 -1.368171 12.609648 -9.113987 2.822067 3.117706 -9.341894 -2.078363 17.739790 33.755886 -18.192734 -11.290357 31.100248 3.024783 -2.018079 -26.355806 -18.336599 36.105145 -72.999596 -13.066786 -8.928615 -48.000809 17.865728 -16.804272 -14.157571 -1.712754 4.707283 9.866691 59.074558 3.383944 15.946326 28.036362 -14.815663 88.440659 -8.061117 -41.061234 23.915394 21.661034 -8.135418 -1.349653 0.189474 12.236323 7.913309 -4.314684 6.346118 8.033816 0.000000 0.000000 0.000000 -6.539379 -4.748327 -11.197332 -0.369963 26.093914 15.339186 10.237019 -6.326372 -20.872128 0.000000 0.000000 0.000000 
-40.898861 93.398788 11.650541 3.121252 -2.573529 101.769104 -1.376340 12.731214 -9.162678 2.595813 3.099823 -9.386405 -2.027269 17.777817 33.937641 -18.307991 -11.371253 31.255297 2.979317 -2.245115 -26.656561 -18.632336 35.669659 -73.115692 -12.653895 -8.729549 -47.930416 17.929735 -16.535421 -14.835451 -1.758243 4.586399 9.684368 58.796097 2.727921 15.786069 27.738804 -14.092212 89.592369 -8.792331 -40.803463 23.696665 21.611998 -8.524615 -1.649848 0.119133 12.731518 8.333770 -4.948467 5.726097 7.693769 0.000000 0.000000 0.000000 -6.327782 -5.285192 -10.584475 -0.288965 26.421814 15.268054 9.896664 -6.582592 -21.120178 0.000000 0.000000 0.000000 
-41.075356 93.366554 12.083256 2.924814 -2.503314 101.497688 -1.332389 12.898649 -9.188790 2.266325 3.031202 -9.399306 -1.950064 17.920921 34.097424 -18.511885 -11.597526 31.342550 2.990840 -2.318095 -26.822392 -18.754427 35.053627 -73.549828 -12.137406 -8.533193 -47.735451 17.744530 -16.157566 -15.384283 -1.781840 4.508473 9.491154 58.491318 2.006151 15.658731 27.703402 -13.283428 90.846237 -10.003949 -40.822578 23.477659 21.595512 -9.003112 -1.987925 -0.240254 13.387045 9.047154 -5.596562 5.305594 7.475560 0.000000 0.000000 0.000000 -6.168691 -5.855444 -10.083069 -0.242957 26.784571 15.292420 9.592669 -6.802089 -21.319546 0.000000 0.000000 0.000000 
-41.257645 93.327354 12.522009 2.781832 -2.434016 101.188438 -1.342683 13.149924 -9.153193 1.994140 2.941569 -9.359088 -1.874553 17.974073 34.213379 -18.634096 -11.768351 31.411469 2.997363 -2.380018 -26.946751 -18.846153 34.475643 -74.007927 -11.715484 -8.501155 -47.672768 17.652033 -15.989072 -15.805531 -1.791942 4.422266 9.292327 58.204567 1.333371 15.530958 27.371597 -12.756133 91.947937 -10.210647 -40.593906 23.372364 21.673290 -9.511853 -2.089091 -0.845027 14.276705 9.726391 -6.039891 4.873341 7.401169 0.000000 0.000000 0.000000 -5.990361 -6.399367 -9.652893 -0.233619 27.152994 15.171759 9.217117 -6.945066 -21.273506 0.000000 0.000000 0.000000 
-41.423355 93.279076 12.915009 2.578812 -2.369296 100.935539 -1.285987 13.256793 -9.141827 1.671548 2.901493 -9.333540 -1.806939 18.008175 34.288902 -18.749149 -11.896351 31.445883 2.959524 -2.436605 -27.096029 -19.011160 33.897770 -74.408005 -11.281273 -8.326398 -47.471424 17.499516 -15.685090 -16.444397 -1.812837 4.354063 9.136972 57.930103 0.685019 15.360424 26.896097 -12.325234 92.999870 -10.409886 -40.300316 23.462240 21.773798 -10.153147 -2.072050 -1.657722 15.369623 10.228604 -6.235046 4.294358 7.443836 0.000000 0.000000 0.000000 -5.895064 -6.964163 -9.426190 -0.206121 27.515036 15.190560 8.761615 -7.085576 -21.198902 0.000000 0.000000 0.000000 
-41.600483 93.229118 13.290373 2.365704 -2.284968 100.669075 -1.230905 13.355516 -9.116849 1.343458 2.871074 -9.294568 -1.747500 18.034679 34.371880 -18.902714 -12.014977 31.480879 2.897208 -2.497271 -27.251356 -19.080599 33.338226 -74.859779 -10.812713 -8.175667 -47.247231 17.459660 -15.411798 -17.133715 -1.831606 4.294160 8.985021 57.638290 -0.211487 15.203562 26.613581 -11.610678 93.964821 -10.651066 -39.938988 23.710966 21.798393 -10.929625 -1.677758 -2.409298 16.783913 10.449496 -6.190603 3.737903 7.275280 0.000000 0.000000 0.000000 -5.843744 -7.546293 -9.364924 -0.253942 27.907572 15.557862 8.402328 -7.272393 -21.272762 0.000000 0.000000 0.000000 
-41.795204 93.186119 13.659074 2.134988 -2.195656 100.327263 -1.238651 13.478257 -9.021139 1.049316 2.801967 -9.193106 -1.742851 18.132629 34.446571 -19.030903 -12.342155 31.476086 2.844410 -2.528447 -27.384037 -18.909882 32.830540 -75.443535 -10.221895 -8.116997 -47.135880 17.299797 -15.132947 -17.568516 -1.803389 4.261824 8.821321 57.341438 -1.166244 15.075207 26.335674 -11.000878 94.896019 -10.646964 -39.587891 23.679672 21.754644 -11.720078 -0.687319 -2.878816 18.304346 10.103858 -6.507404 3.239003 7.064215 0.000000 0.000000 0.000000 -5.793173 -8.171998 -9.237255 -0.286720 28.297184 15.730863 8.048368 -7.390477 -21.189489 0.000000 0.000000 0.000000 
-41.985687 93.147125 13.992798 1.943057 -2.080493 100.047211 -1.220781 13.630666 -8.960943 0.764345 2.735604 -9.125034 -1.772122 18.198893 34.511662 -19.166971 -12.603815 31.469322 2.763452 -2.580032 -27.526892 -19.210779 32.264256 -75.731491 -9.666321 -7.797563 -47.029907 17.173878 -14.569921 -17.666731 -1.829382 4.292471 8.681038 57.065540 -1.869491 15.046427 25.773636 -10.830522 95.852272 -10.183859 -39.243168 23.665272 21.689451 -12.554218 0.106963 -3.479047 19.998459 9.623878 -6.827403 2.781420 6.919546 0.000000 0.000000 0.000000 -5.796292 -8.719090 -9.302519 -0.364910 28.653032 15.962167 7.979499 -7.498899 -21.050781 0.000000 0.000000 0.000000 
-42.179218 93.116142 14.300269 1.763205 -1.942101 99.813080 -1.196118 13.827502 -8.926019 0.486876 2.624388 -9.082144 -1.776937 18.179266 34.566319 -19.289055 -12.707266 31.482401 2.674096 -2.582872 -27.604231 -19.494640 31.669334 -76.063469 -9.298634 -7.568443 -46.972511 17.084684 -14.210937 -17.937057 -1.893228 4.331137 8.645269 56.831276 -2.832158 14.934583 25.512764 -10.230906 96.810677 -10.749278 -39.023384 23.773006 21.523335 -13.442703 1.042940 -3.908134 21.827856 8.899372 -7.259670 2.419018 6.622521 0.000000 0.000000 0.000000 -5.840600 -9.219276 -9.403732 -0.432674 28.967922 16.227102 7.745835 -7.580923 -20.934807 0.000000 0.000000 0.000000 
-42.371914 93.095520 14.583606 1.609986 -1.773911 99.627800 -1.162447 14.050097 -8.914842 0.193645 2.520926 -9.062294 -1.787945 18.090708 34.585579 -19.353582 -12.746772 31.482704 2.611206 -2.651710 -27.696051 -19.846407 31.138569 -76.320694 -8.771202 -7.195923 -46.982716 16.925917 -13.629283 -18.146490 -1.938258 4.180487 8.720790 56.550591 -3.821681 14.569582 25.389746 -9.469686 97.824326 -11.462443 -38.847927 23.685408 21.242620 -14.357767 1.932017 -4.211631 23.759970 8.145795 -7.726383 2.162962 6.253654 0.000000 0.000000 0.000000 -5.923920 -9.652929 -9.450307 -0.448008 29.251675 16.573950 7.489005 -7.685333 -21.021105 0.000000 0.000000 0.000000 
-42.547001 93.084511 14.836528 1.501652 -1.599473 99.416107 -1.126299 14.283375 -8.876218 -0.101069 2.391562 -9.015170 -1.866499 18.186054 34.636173 -19.452778 -12.967688 31.473322 2.530649 -2.635015 -27.850227 -20.179665 30.590723 -76.497612 -8.125611 -6.737608 -47.091602 16.926527 -12.853422 -17.738821 -1.917142 4.012016 8.802243 56.204735 -4.572026 14.184512 25.058224 -9.062606 98.838203 -11.987979 -38.717358 23.654078 20.928495 -15.175962 2.659932 -4.516996 25.650236 7.264009 -8.245215 1.913591 6.128032 0.000000 0.000000 0.000000 -5.989668 -10.019882 -9.431259 -0.515126 29.489080 16.897425 7.323582 -7.754803 -21.065651 0.000000 0.000000 0.000000 
-42.723907 93.076935 15.071355 1.377987 -1.447844 99.184593 -1.082093 14.506759 -8.821973 -0.373921 2.186742 -8.952501 -1.939174 18.512995 34.700539 -19.723173 -13.338037 31.408030 2.415946 -2.534634 -28.058184 -20.423098 30.046869 -76.644737 -7.709007 -6.590731 -47.260651 16.914566 -12.532605 -17.672539 -1.936110 4.095947 8.923574 55.836838 -5.459002 13.924091 24.809994 -8.595998 99.798698 -12.352739 -38.581875 23.712790 20.614944 -15.976830 3.341085 -4.820999 27.504261 6.429884 -8.442039 1.684351 5.918964 0.000000 0.000000 0.000000 -6.017926 -10.401452 -9.328711 -0.569495 29.695610 17.058630 7.157633 -7.777411 -21.062914 0.000000 0.000000 0.000000 
-42.888168 93.070190 15.294496 1.293271 -1.281118 99.050247 -1.046252 14.744399 -8.816790 -0.601474 2.086112 -8.941141 -1.959002 18.439863 34.750835 -19.821756 -13.285661 31.448164 2.388278 -2.597253 -28.162184 -20.704479 29.611164 -76.856056 -7.218821 -6.453367 -47.496216 16.806398 -12.135866 -17.323019 -2.034207 4.069963 8.919684 55.597134 -6.163713 13.806491 24.398329 -8.247458 100.649353 -12.606191 -38.302197 23.807156 20.252489 -16.746666 3.889763 -5.143969 29.301926 5.878192 -8.886129 1.514852 5.666930 0.000000 0.000000 0.000000 -6.065900 -10.694531 -9.246718 -0.603988 29.875828 17.227209 6.983878 -7.837590 -21.129580 0.000000 0.000000 0.000000 
